# Blender v2.83.5 OBJ File: 'runes icons.blend'
# www.blender.org
mtllib Dagaz.mtl
o Dagaz
v -0.046741 -0.051377 -0.002736
v -0.046741 0.051377 -0.002736
v 0.006986 -0.051377 -0.064654
v 0.006986 0.051377 -0.064654
v 0.005494 -0.051377 0.060402
v 0.005494 0.051377 0.060402
v 0.054673 -0.051377 0.000645
v 0.054673 0.051377 0.000645
v -0.132595 -0.051377 -0.091273
v -0.132595 0.051377 -0.091273
v -0.191085 0.051377 -0.251513
v -0.191085 -0.051377 -0.251513
v 0.189292 -0.051377 -0.253039
v 0.189292 0.051377 -0.253039
v 0.135020 0.051377 -0.085648
v 0.135020 -0.051377 -0.085648
v 0.138745 -0.051377 0.083526
v 0.138745 0.051377 0.083526
v 0.192891 0.051377 0.248231
v 0.192891 -0.051377 0.248231
v -0.186332 -0.051377 0.259970
v -0.186332 0.051377 0.259970
v -0.131416 0.051377 0.085962
v -0.131416 -0.051377 0.085962
vt 0.500000 0.500000
vt 0.500000 0.500000
vt 0.500000 0.500000
vt 0.500000 0.500000
vt 0.500000 0.500000
vt 0.500000 0.500000
vt 0.500000 0.500000
vt 0.500000 0.500000
vt 0.500000 0.500000
vt 0.500000 0.500000
vt 0.500000 0.500000
vt 0.500000 0.500000
vt 0.500000 0.500000
vt 0.500000 0.500000
vt 0.500000 0.500000
vt 0.500000 0.500000
vt 0.500000 0.500000
vt 0.500000 0.500000
vt 0.500000 0.500000
vt 0.500000 0.500000
vt 0.500000 0.500000
vt 0.500000 0.500000
vt 0.500000 0.500000
vt 0.500000 0.500000
vn 1.0000 0.0000 -0.0067
vn 0.0000 1.0000 0.0000
vn -1.0000 0.0000 0.0093
vn 0.0000 -1.0000 0.0000
vn 1.0000 0.0000 -0.0072
vn -0.7179 0.0000 0.6961
vn 0.6862 0.0000 -0.7274
vn -0.7186 0.0000 -0.6954
vn 0.7319 0.0000 0.6814
vn -0.9998 0.0000 0.0220
vn 0.7020 0.0000 -0.7121
vn -0.7079 0.0000 0.7063
vn 0.7210 0.0000 0.6930
vn -0.7233 0.0000 -0.6905
usemtl Material.002
s off
f 23/1/1 24/2/1 9/3/1 10/4/1
f 22/5/2 23/1/2 10/4/2 11/6/2
f 21/7/3 22/5/3 11/6/3 12/8/3
f 24/2/4 21/7/4 12/8/4 9/3/4
f 3/9/4 7/10/4 5/11/4 1/12/4
f 8/13/2 4/14/2 2/15/2 6/16/2
f 19/17/5 20/18/5 13/19/5 14/20/5
f 2/15/6 10/4/6 9/3/6 1/12/6
f 4/14/2 11/6/2 10/4/2 2/15/2
f 3/9/7 12/8/7 11/6/7 4/14/7
f 1/12/4 9/3/4 12/8/4 3/9/4
f 18/21/2 19/17/2 14/20/2 15/22/2
f 4/14/8 14/20/8 13/19/8 3/9/8
f 8/13/2 15/22/2 14/20/2 4/14/2
f 7/10/9 16/23/9 15/22/9 8/13/9
f 3/9/4 13/19/4 16/23/4 7/10/4
f 17/24/10 18/21/10 15/22/10 16/23/10
f 8/13/11 18/21/11 17/24/11 7/10/11
f 6/16/2 19/17/2 18/21/2 8/13/2
f 5/11/12 20/18/12 19/17/12 6/16/12
f 7/10/4 17/24/4 20/18/4 5/11/4
f 20/18/4 17/24/4 16/23/4 13/19/4
f 6/16/13 22/5/13 21/7/13 5/11/13
f 2/15/2 23/1/2 22/5/2 6/16/2
f 1/12/14 24/2/14 23/1/14 2/15/14
f 5/11/4 21/7/4 24/2/4 1/12/4
