# Blender v2.83.5 OBJ File: 'runes icons.blend'
# www.blender.org
mtllib Ehwaz.mtl
o Ehwaz
v -0.162157 -0.051377 0.292339
v -0.162157 0.051377 0.292339
v -0.170117 -0.051377 -0.289246
v -0.170117 0.051377 -0.289246
v -0.070930 -0.051377 0.291090
v -0.070930 0.051377 0.291090
v -0.005516 -0.051377 -0.155605
v -0.005516 0.051377 -0.155605
v 0.084437 -0.051377 0.288033
v 0.084437 0.051377 0.288033
v -0.002427 -0.051377 -0.039806
v -0.002427 0.051377 -0.039806
v 0.170401 -0.051377 0.286857
v 0.170401 0.051377 0.286857
v 0.162441 -0.051377 -0.294729
v 0.162441 0.051377 -0.294729
v -0.167443 -0.051377 -0.093854
v -0.167443 0.051377 -0.093854
v -0.076216 -0.051377 -0.095102
v -0.076216 0.051377 -0.095102
v 0.079151 -0.051377 -0.098159
v 0.079151 0.051377 -0.098159
v 0.165115 -0.051377 -0.099336
v 0.165115 0.051377 -0.099336
vt 0.500000 0.500000
vt 0.500000 0.500000
vt 0.500000 0.500000
vt 0.500000 0.500000
vt 0.500000 0.500000
vt 0.500000 0.500000
vt 0.500000 0.500000
vt 0.500000 0.500000
vt 0.500000 0.500000
vt 0.500000 0.500000
vt 0.500000 0.500000
vt 0.500000 0.500000
vt 0.500000 0.500000
vt 0.500000 0.500000
vt 0.500000 0.500000
vt 0.500000 0.500000
vt 0.500000 0.500000
vt 0.500000 0.500000
vt 0.500000 0.500000
vt 0.500000 0.500000
vt 0.500000 0.500000
vt 0.500000 0.500000
vt 0.500000 0.500000
vt 0.500000 0.500000
vn -0.9999 0.0000 0.0137
vn 0.6303 0.0000 -0.7763
vn 0.9999 0.0000 -0.0137
vn 0.0137 0.0000 0.9999
vn 0.0000 -1.0000 -0.0000
vn 0.0000 1.0000 -0.0000
vn -0.6379 0.0000 -0.7701
vn -0.5997 0.0000 0.8002
vn 0.5818 0.0000 0.8133
usemtl Material.002
s off
f 17/1/1 18/2/1 4/3/1 3/4/1
f 3/4/2 4/3/2 8/5/2 7/6/2
f 19/7/3 20/8/3 6/9/3 5/10/3
f 5/10/4 6/9/4 2/11/4 1/12/4
f 17/1/5 19/7/5 5/10/5 1/12/5
f 20/8/6 18/2/6 2/11/6 6/9/6
f 7/6/7 8/5/7 16/13/7 15/14/7
f 23/15/3 24/16/3 14/17/3 13/18/3
f 13/18/4 14/17/4 10/19/4 9/20/4
f 21/21/5 23/15/5 13/18/5 9/20/5
f 24/16/6 22/22/6 10/19/6 14/17/6
f 8/5/6 4/3/6 18/2/6 20/8/6
f 3/4/5 7/6/5 19/7/5 17/1/5
f 1/12/1 2/11/1 18/2/1 17/1/1
f 16/13/6 8/5/6 22/22/6 24/16/6
f 7/6/5 15/14/5 23/15/5 21/21/5
f 15/14/3 16/13/3 24/16/3 23/15/3
f 9/20/1 10/19/1 22/22/1 21/21/1
f 12/23/8 20/8/8 19/7/8 11/24/8
f 22/22/9 12/23/9 11/24/9 21/21/9
f 20/8/6 12/23/6 22/22/6 8/5/6
f 19/7/5 7/6/5 21/21/5 11/24/5
