# Blender v2.83.5 OBJ File: 'runes icons.blend'
# www.blender.org
mtllib Eihwaz.mtl
o Eihwaz
v -0.046369 -0.051377 0.115304
v -0.046369 0.051377 0.115304
v -0.049558 -0.051377 -0.259007
v -0.049558 0.051377 -0.259007
v 0.043387 -0.051377 0.263082
v 0.043387 0.051377 0.263082
v 0.038281 -0.051377 -0.110006
v 0.038281 0.051377 -0.110006
v -0.030075 -0.051377 -0.259189
v -0.030075 0.051377 -0.259189
v 0.045115 0.051377 -0.109330
v 0.045115 -0.051377 -0.109330
v 0.022017 -0.051377 0.260983
v 0.022017 0.051377 0.260983
v -0.053344 0.051377 0.117935
v -0.053344 -0.051377 0.117935
v 0.197484 -0.051377 -0.097183
v 0.197484 0.051377 -0.097183
v 0.148839 0.051377 -0.038910
v 0.148839 -0.051377 -0.038910
v -0.188975 -0.051377 0.106259
v -0.188975 0.051377 0.106259
v -0.147279 0.051377 0.045782
v -0.147279 -0.051377 0.045782
vt 0.500000 0.500000
vt 0.500000 0.500000
vt 0.500000 0.500000
vt 0.500000 0.500000
vt 0.500000 0.500000
vt 0.500000 0.500000
vt 0.500000 0.500000
vt 0.500000 0.500000
vt 0.500000 0.500000
vt 0.500000 0.500000
vt 0.500000 0.500000
vt 0.500000 0.500000
vt 0.500000 0.500000
vt 0.500000 0.500000
vt 0.500000 0.500000
vt 0.500000 0.500000
vt 0.500000 0.500000
vt 0.500000 0.500000
vt 0.500000 0.500000
vt 0.500000 0.500000
vt 0.500000 0.500000
vt 0.500000 0.500000
vt 0.500000 0.500000
vt 0.500000 0.500000
vn -1.0000 0.0000 0.0085
vn 0.5800 0.0000 -0.8146
vn 0.9999 0.0000 -0.0137
vn 0.7677 0.0000 0.6408
vn 0.0000 -1.0000 0.0000
vn 0.0000 1.0000 0.0000
vn -0.0093 0.0000 -1.0000
vn -0.0984 0.0000 0.9951
vn -0.0978 0.0000 0.9952
vn -0.3529 0.0000 -0.9356
vn -0.5617 0.0000 0.8273
vn -0.8233 0.0000 -0.5676
vn -0.5914 0.0000 0.8064
vn 0.6092 0.0000 -0.7931
usemtl Material.002
s off
f 1/1/1 2/2/1 4/3/1 3/4/1
f 10/5/2 18/6/2 17/7/2 9/8/2
f 7/9/3 8/10/3 6/11/3 5/12/3
f 17/7/4 18/6/4 19/13/4 20/14/4
f 3/4/5 7/9/5 5/12/5 1/1/5
f 8/10/6 4/3/6 2/2/6 6/11/6
f 4/3/7 10/5/7 9/8/7 3/4/7
f 8/10/6 11/15/6 10/5/6 4/3/6
f 7/9/8 12/16/8 11/15/8 8/10/8
f 3/4/5 9/8/5 12/16/5 7/9/5
f 6/11/9 14/17/9 13/18/9 5/12/9
f 2/2/6 15/19/6 14/17/6 6/11/6
f 1/1/10 16/20/10 15/19/10 2/2/10
f 5/12/5 13/18/5 16/20/5 1/1/5
f 11/15/6 19/13/6 18/6/6 10/5/6
f 12/16/11 20/14/11 19/13/11 11/15/11
f 9/8/5 17/7/5 20/14/5 12/16/5
f 21/21/12 22/22/12 23/23/12 24/24/12
f 14/17/13 22/22/13 21/21/13 13/18/13
f 15/19/6 23/23/6 22/22/6 14/17/6
f 16/20/14 24/24/14 23/23/14 15/19/14
f 13/18/5 21/21/5 24/24/5 16/20/5
