# Blender v2.83.5 OBJ File: 'runes icons.blend'
# www.blender.org
mtllib Fehu.mtl
o Fehu
v -0.105107 -0.051377 0.330683
v -0.105107 0.051377 0.330683
v -0.112769 -0.051377 -0.229075
v -0.112769 0.051377 -0.229075
v -0.026167 -0.051377 0.329602
v -0.026167 0.051377 0.329602
v -0.033829 -0.051377 -0.230156
v -0.033829 0.051377 -0.230156
v -0.108938 -0.051377 0.050804
v -0.108938 0.051377 0.050804
v -0.029998 -0.051377 0.049723
v -0.029998 0.051377 0.049723
v -0.107700 -0.051377 0.141241
v -0.028760 0.051377 0.140160
v -0.107700 0.051377 0.141241
v -0.028760 -0.051377 0.140160
v -0.111522 0.051377 -0.138019
v -0.032583 -0.051377 -0.139099
v -0.111522 -0.051377 -0.138019
v -0.032583 0.051377 -0.139099
v -0.110230 -0.051377 -0.043607
v -0.031290 0.051377 -0.044688
v -0.110230 0.051377 -0.043607
v -0.031290 -0.051377 -0.044688
v 0.146605 0.051377 -0.243456
v 0.146605 -0.051377 -0.243456
v 0.153604 -0.051377 -0.059651
v 0.153604 0.051377 -0.059651
v 0.188988 0.051377 0.016007
v 0.188988 -0.051377 0.016007
v 0.186197 0.051377 -0.174869
v 0.186197 -0.051377 -0.174869
vt 0.500000 0.500000
vt 0.500000 0.500000
vt 0.500000 0.500000
vt 0.500000 0.500000
vt 0.500000 0.500000
vt 0.500000 0.500000
vt 0.500000 0.500000
vt 0.500000 0.500000
vt 0.500000 0.500000
vt 0.500000 0.500000
vt 0.500000 0.500000
vt 0.500000 0.500000
vt 0.500000 0.500000
vt 0.500000 0.500000
vt 0.500000 0.500000
vt 0.500000 0.500000
vt 0.500000 0.500000
vt 0.500000 0.500000
vt 0.500000 0.500000
vt 0.500000 0.500000
vt 0.500000 0.500000
vt 0.500000 0.500000
vt 0.500000 0.500000
vt 0.500000 0.500000
vt 0.500000 0.500000
vt 0.500000 0.500000
vt 0.500000 0.500000
vt 0.500000 0.500000
vt 0.500000 0.500000
vt 0.500000 0.500000
vt 0.500000 0.500000
vt 0.500000 0.500000
vn -0.9999 0.0000 0.0137
vn -0.0137 0.0000 -0.9999
vn 0.9999 0.0000 -0.0137
vn 0.0137 0.0000 0.9999
vn 0.0000 -1.0000 0.0000
vn 0.0000 1.0000 0.0000
vn -0.5033 0.0000 -0.8641
vn 0.9058 0.0000 -0.4236
vn -0.5118 0.0000 -0.8591
vn 0.4953 0.0000 0.8687
vn 0.5136 0.0000 0.8580
vn 0.8661 0.0000 -0.4999
usemtl Material.002
s off
f 19/1/1 17/2/1 4/3/1 3/4/1
f 3/4/2 4/3/2 8/5/2 7/6/2
f 16/7/3 14/8/3 6/9/3 5/10/3
f 5/10/4 6/9/4 2/11/4 1/12/4
f 13/13/5 16/7/5 5/10/5 1/12/5
f 14/8/6 15/14/6 2/11/6 6/9/6
f 22/15/6 23/16/6 10/17/6 12/18/6
f 21/19/5 24/20/5 11/21/5 9/22/5
f 24/20/3 22/15/3 12/18/3 11/21/3
f 13/13/1 15/14/1 10/17/1 9/22/1
f 1/12/1 2/11/1 15/14/1 13/13/1
f 12/18/6 10/17/6 15/14/6 14/8/6
f 9/22/5 11/21/5 16/7/5 13/13/5
f 16/7/5 11/21/5 27/23/5 30/24/5
f 7/6/3 8/5/3 20/25/3 18/26/3
f 3/4/5 7/6/5 18/26/5 19/1/5
f 8/5/6 4/3/6 17/2/6 20/25/6
f 21/19/1 23/16/1 17/2/1 19/1/1
f 9/22/1 10/17/1 23/16/1 21/19/1
f 18/26/7 20/25/7 25/27/7 26/28/7
f 19/1/5 18/26/5 24/20/5 21/19/5
f 20/25/6 17/2/6 23/16/6 22/15/6
f 24/20/5 18/26/5 26/28/5 32/29/5
f 27/23/8 28/30/8 29/31/8 30/24/8
f 12/18/6 14/8/6 29/31/6 28/30/6
f 11/21/9 12/18/9 28/30/9 27/23/9
f 14/8/10 16/7/10 30/24/10 29/31/10
f 22/15/11 24/20/11 32/29/11 31/32/11
f 20/25/6 22/15/6 31/32/6 25/27/6
f 25/27/12 31/32/12 32/29/12 26/28/12
