# Blender v2.83.5 OBJ File: 'runes icons.blend'
# www.blender.org
mtllib Hagalaz.mtl
o Hagalaz
v -0.166389 -0.051377 0.287967
v -0.166389 0.051377 0.287967
v -0.174220 -0.051377 -0.284146
v -0.174220 0.051377 -0.284146
v -0.073091 -0.051377 0.286690
v -0.073091 0.051377 0.286690
v -0.080922 -0.051377 -0.285423
v -0.080922 0.051377 -0.285423
v 0.091123 -0.051377 0.284442
v 0.091123 0.051377 0.284442
v 0.083292 -0.051377 -0.287670
v 0.083292 0.051377 -0.287670
v 0.174837 -0.051377 0.283296
v 0.174837 0.051377 0.283296
v 0.167006 -0.051377 -0.288816
v 0.167006 0.051377 -0.288816
v -0.170305 -0.051377 0.001911
v -0.170305 0.051377 0.001911
v -0.077006 -0.051377 0.000634
v -0.077006 0.051377 0.000634
v -0.172164 0.051377 -0.133876
v -0.078865 -0.051377 -0.135153
v -0.172164 -0.051377 -0.133876
v -0.078865 0.051377 -0.135153
v 0.087381 -0.051377 0.011019
v 0.087381 0.051377 0.011019
v 0.171095 -0.051377 0.009873
v 0.171095 0.051377 0.009873
v 0.089104 -0.051377 0.136938
v 0.172818 0.051377 0.135792
v 0.089104 0.051377 0.136938
v 0.172818 -0.051377 0.135792
vt 0.500000 0.500000
vt 0.500000 0.500000
vt 0.500000 0.500000
vt 0.500000 0.500000
vt 0.500000 0.500000
vt 0.500000 0.500000
vt 0.500000 0.500000
vt 0.500000 0.500000
vt 0.500000 0.500000
vt 0.500000 0.500000
vt 0.500000 0.500000
vt 0.500000 0.500000
vt 0.500000 0.500000
vt 0.500000 0.500000
vt 0.500000 0.500000
vt 0.500000 0.500000
vt 0.500000 0.500000
vt 0.500000 0.500000
vt 0.500000 0.500000
vt 0.500000 0.500000
vt 0.500000 0.500000
vt 0.500000 0.500000
vt 0.500000 0.500000
vt 0.500000 0.500000
vt 0.500000 0.500000
vt 0.500000 0.500000
vt 0.500000 0.500000
vt 0.500000 0.500000
vt 0.500000 0.500000
vt 0.500000 0.500000
vt 0.500000 0.500000
vt 0.500000 0.500000
vn -0.9999 0.0000 0.0137
vn -0.0137 0.0000 -0.9999
vn 0.9999 0.0000 -0.0137
vn 0.0137 0.0000 0.9999
vn 0.0000 -1.0000 0.0000
vn 0.0000 1.0000 0.0000
vn 0.6603 0.0000 -0.7510
vn -0.6343 0.0000 0.7731
usemtl Material.002
s off
f 23/1/1 21/2/1 4/3/1 3/4/1
f 3/4/2 4/3/2 8/5/2 7/6/2
f 19/7/3 20/8/3 6/9/3 5/10/3
f 5/10/4 6/9/4 2/11/4 1/12/4
f 17/13/5 19/7/5 5/10/5 1/12/5
f 20/8/6 18/14/6 2/11/6 6/9/6
f 25/15/1 26/16/1 12/17/1 11/18/1
f 11/18/2 12/17/2 16/19/2 15/20/2
f 32/21/3 30/22/3 14/23/3 13/24/3
f 13/24/4 14/23/4 10/25/4 9/26/4
f 29/27/5 32/21/5 13/24/5 9/26/5
f 30/22/6 31/28/6 10/25/6 14/23/6
f 24/29/6 21/2/6 18/14/6 20/8/6
f 23/1/5 22/30/5 19/7/5 17/13/5
f 25/15/5 29/27/5 19/7/5 22/30/5
f 1/12/1 2/11/1 18/14/1 17/13/1
f 7/6/3 8/5/3 24/29/3 22/30/3
f 3/4/5 7/6/5 22/30/5 23/1/5
f 8/5/6 4/3/6 21/2/6 24/29/6
f 17/13/1 18/14/1 21/2/1 23/1/1
f 16/19/6 12/17/6 26/16/6 28/31/6
f 11/18/5 15/20/5 27/32/5 25/15/5
f 15/20/3 16/19/3 28/31/3 27/32/3
f 26/16/7 25/15/7 22/30/7 24/29/7
f 9/26/1 10/25/1 31/28/1 29/27/1
f 28/31/6 26/16/6 31/28/6 30/22/6
f 25/15/5 27/32/5 32/21/5 29/27/5
f 27/32/3 28/31/3 30/22/3 32/21/3
f 29/27/8 31/28/8 20/8/8 19/7/8
f 31/28/6 26/16/6 24/29/6 20/8/6
