# Blender v2.83.5 OBJ File: 'runes icons.blend'
# www.blender.org
mtllib Isa.mtl
o Isa
v -0.037926 -0.051377 0.287607
v -0.037926 0.051377 0.287607
v -0.045783 -0.051377 -0.286461
v -0.045783 0.051377 -0.286461
v 0.045784 -0.051377 0.286461
v 0.045784 0.051377 0.286461
v 0.037926 -0.051377 -0.287606
v 0.037926 0.051377 -0.287606
vt 0.500000 0.500000
vt 0.500000 0.500000
vt 0.500000 0.500000
vt 0.500000 0.500000
vt 0.500000 0.500000
vt 0.500000 0.500000
vt 0.500000 0.500000
vt 0.500000 0.500000
vn -0.9999 0.0000 0.0137
vn -0.0137 0.0000 -0.9999
vn 0.9999 0.0000 -0.0137
vn 0.0137 0.0000 0.9999
vn 0.0000 -1.0000 0.0000
vn 0.0000 1.0000 0.0000
usemtl Material.002
s off
f 1/1/1 2/2/1 4/3/1 3/4/1
f 3/4/2 4/3/2 8/5/2 7/6/2
f 7/6/3 8/5/3 6/7/3 5/8/3
f 5/8/4 6/7/4 2/2/4 1/1/4
f 3/4/5 7/6/5 5/8/5 1/1/5
f 8/5/6 4/3/6 2/2/6 6/7/6
