# Blender v2.83.5 OBJ File: 'runes icons.blend'
# www.blender.org
mtllib Jera.mtl
o Jera
v 0.031523 -0.051377 0.279055
v 0.031523 0.051377 0.279055
v -0.193521 -0.051377 0.066511
v -0.193521 0.051377 0.066511
v 0.089715 -0.051377 0.220551
v 0.089715 0.051377 0.220551
v -0.081884 -0.051377 0.064250
v -0.081884 0.051377 0.064250
v -0.035187 0.051377 -0.106985
v -0.035187 -0.051377 -0.106985
v 0.028928 -0.051377 -0.051631
v 0.028928 0.051377 -0.051631
v 0.033524 -0.051377 0.117051
v 0.033524 0.051377 0.117051
v 0.195157 -0.051377 -0.055101
v 0.195157 0.051377 -0.055101
v -0.026248 -0.051377 0.060161
v -0.026248 0.051377 0.060161
v 0.083528 -0.051377 -0.052229
v 0.083528 0.051377 -0.052229
v -0.035117 0.051377 -0.282461
v -0.035117 -0.051377 -0.282461
v -0.097692 -0.051377 -0.225374
v -0.097692 0.051377 -0.225374
vt 0.500000 0.500000
vt 0.500000 0.500000
vt 0.500000 0.500000
vt 0.500000 0.500000
vt 0.500000 0.500000
vt 0.500000 0.500000
vt 0.500000 0.500000
vt 0.500000 0.500000
vt 0.500000 0.500000
vt 0.500000 0.500000
vt 0.500000 0.500000
vt 0.500000 0.500000
vt 0.500000 0.500000
vt 0.500000 0.500000
vt 0.500000 0.500000
vt 0.500000 0.500000
vt 0.500000 0.500000
vt 0.500000 0.500000
vt 0.500000 0.500000
vt 0.500000 0.500000
vt 0.500000 0.500000
vt 0.500000 0.500000
vt 0.500000 0.500000
vt 0.500000 0.500000
vn -0.6866 0.0000 0.7270
vn 0.0000 1.0000 0.0000
vn 0.6734 0.0000 -0.7393
vn 0.7090 0.0000 0.7052
vn 0.0000 -1.0000 -0.0000
vn 0.6535 0.0000 -0.7569
vn -0.7386 0.0000 -0.6741
vn 0.7227 0.0000 0.6911
vn 0.7290 0.0000 0.6845
vn -0.7154 0.0000 -0.6987
vn -0.6894 0.0000 0.7244
vn -0.6740 0.0000 -0.7388
vn 0.7026 0.0000 -0.7116
vn -0.6908 0.0000 0.7230
usemtl Material.002
s off
f 1/1/1 2/2/1 4/3/1 3/4/1
f 4/3/2 8/5/2 12/6/2 9/7/2
f 7/8/3 8/5/3 6/9/3 5/10/3
f 5/10/4 6/9/4 2/2/4 1/1/4
f 3/4/5 7/8/5 5/10/5 1/1/5
f 8/5/2 4/3/2 2/2/2 6/9/2
f 10/11/6 9/7/6 12/6/6 11/12/6
f 3/4/7 4/3/7 9/7/7 10/11/7
f 8/5/8 7/8/8 11/12/8 12/6/8
f 7/8/5 3/4/5 10/11/5 11/12/5
f 13/13/9 15/14/9 16/15/9 14/16/9
f 16/15/2 21/17/2 24/18/2 20/19/2
f 19/20/10 17/21/10 18/22/10 20/19/10
f 17/21/11 13/13/11 14/16/11 18/22/11
f 15/14/5 13/13/5 17/21/5 19/20/5
f 20/19/2 18/22/2 14/16/2 16/15/2
f 22/23/12 23/24/12 24/18/12 21/17/12
f 15/14/13 22/23/13 21/17/13 16/15/13
f 20/19/14 24/18/14 23/24/14 19/20/14
f 19/20/5 23/24/5 22/23/5 15/14/5
