# Blender v2.83.5 OBJ File: 'runes icons.blend'
# www.blender.org
mtllib Kaunan.mtl
o Kaunan
v -0.219755 -0.051377 0.002134
v -0.219755 0.051377 0.002134
v 0.096850 -0.051377 -0.275359
v 0.096850 0.051377 -0.275359
v -0.062626 -0.051377 0.002743
v -0.062626 0.051377 0.002743
v 0.168533 -0.051377 -0.206535
v 0.168533 0.051377 -0.206535
v 0.104032 -0.051377 0.274775
v 0.104032 0.051377 0.274775
v 0.171279 -0.051377 0.201772
v 0.171279 0.051377 0.201772
vt 0.500000 0.500000
vt 0.500000 0.500000
vt 0.500000 0.500000
vt 0.500000 0.500000
vt 0.500000 0.500000
vt 0.500000 0.500000
vt 0.500000 0.500000
vt 0.500000 0.500000
vt 0.500000 0.500000
vt 0.500000 0.500000
vt 0.500000 0.500000
vt 0.500000 0.500000
vn -0.6591 0.0000 -0.7520
vn 0.6926 0.0000 -0.7213
vn 0.6711 0.0000 0.7413
vn 0.0000 1.0000 -0.0000
vn 0.0000 -1.0000 -0.0000
vn 0.7355 0.0000 0.6775
vn 0.6480 0.0000 -0.7616
vn -0.6441 0.0000 0.7649
usemtl Material.002
s off
f 1/1/1 2/2/1 4/3/1 3/4/1
f 3/4/2 4/3/2 8/5/2 7/6/2
f 7/6/3 8/5/3 6/7/3 5/8/3
f 6/7/4 2/2/4 10/9/4 12/10/4
f 3/4/5 7/6/5 5/8/5 1/1/5
f 8/5/4 4/3/4 2/2/4 6/7/4
f 11/11/6 12/10/6 10/9/6 9/12/6
f 5/8/7 6/7/7 12/10/7 11/11/7
f 2/2/8 1/1/8 9/12/8 10/9/8
f 1/1/5 5/8/5 11/11/5 9/12/5
