# Blender v2.83.5 OBJ File: 'runes icons.blend'
# www.blender.org
mtllib Laguz.mtl
o Laguz
v -0.074294 -0.051377 0.311719
v -0.074294 0.051377 0.311719
v 0.018955 -0.051377 0.310443
v 0.018955 0.051377 0.310443
v -0.082211 0.051377 -0.266709
v -0.082211 -0.051377 -0.266709
v 0.013089 -0.051377 -0.118120
v 0.013089 0.051377 -0.118120
v 0.195186 0.051377 -0.116665
v 0.195186 -0.051377 -0.116665
v 0.142937 -0.051377 -0.041977
v 0.142937 0.051377 -0.041977
vt 0.500000 0.500000
vt 0.500000 0.500000
vt 0.500000 0.500000
vt 0.500000 0.500000
vt 0.500000 0.500000
vt 0.500000 0.500000
vt 0.500000 0.500000
vt 0.500000 0.500000
vt 0.500000 0.500000
vt 0.500000 0.500000
vt 0.500000 0.500000
vt 0.500000 0.500000
vn 0.9999 0.0000 -0.0137
vn 0.0137 0.0000 0.9999
vn 0.0000 -1.0000 0.0000
vn 0.0000 1.0000 0.0000
vn -0.9999 0.0000 0.0137
vn 0.8194 0.0000 0.5732
vn -0.5058 0.0000 0.8626
vn 0.4758 0.0000 -0.8796
usemtl Material.002
s off
f 7/1/1 8/2/1 4/3/1 3/4/1
f 3/4/2 4/3/2 2/5/2 1/6/2
f 6/7/3 7/1/3 3/4/3 1/6/3
f 8/2/4 5/8/4 2/5/4 4/3/4
f 7/1/3 6/7/3 10/9/3 11/10/3
f 1/6/5 2/5/5 5/8/5 6/7/5
f 10/9/6 9/11/6 12/12/6 11/10/6
f 5/8/4 8/2/4 12/12/4 9/11/4
f 8/2/7 7/1/7 11/10/7 12/12/7
f 6/7/8 5/8/8 9/11/8 10/9/8
