# Blender v2.83.5 OBJ File: 'runes icons.blend'
# www.blender.org
mtllib Mannaz.mtl
o Mannaz
v -0.189702 -0.051377 0.277503
v -0.189702 0.051377 0.277503
v -0.196905 -0.051377 -0.248730
v -0.196905 0.051377 -0.248730
v -0.117653 -0.051377 0.276517
v -0.117653 0.051377 0.276517
v 0.116325 -0.051377 0.276414
v 0.116325 0.051377 0.276414
v 0.184099 0.051377 -0.256402
v 0.195729 -0.051377 0.275327
v 0.195729 0.051377 0.275327
v 0.184099 -0.051377 -0.256402
v -0.193804 -0.051377 -0.022152
v -0.193804 0.051377 -0.022152
v -0.121755 -0.051377 -0.023138
v -0.121755 0.051377 -0.023138
v 0.113172 -0.051377 0.046049
v 0.113172 0.051377 0.046049
v 0.192576 -0.051377 0.044962
v 0.192576 0.051377 0.044962
v -0.192693 -0.051377 0.059004
v -0.120644 0.051377 0.058018
v -0.192693 0.051377 0.059004
v -0.120644 -0.051377 0.058018
v 0.121951 0.051377 -0.033274
v 0.191492 -0.051377 -0.034226
v 0.121951 -0.051377 -0.033274
v 0.191492 0.051377 -0.034226
v 0.121572 0.051377 -0.115023
v 0.190373 -0.051377 -0.115965
v 0.121572 -0.051377 -0.115023
v 0.190373 0.051377 -0.115965
v -0.194985 0.051377 -0.108492
v -0.122937 -0.051377 -0.109478
v -0.194985 -0.051377 -0.108492
v -0.122937 0.051377 -0.109478
v -0.063711 -0.051377 -0.073255
v -0.063711 0.051377 -0.073255
v 0.000238 0.051377 -0.032331
v 0.000238 -0.051377 -0.032331
v 0.058966 0.051377 -0.075329
v -0.002742 -0.051377 -0.115565
v -0.002742 0.051377 -0.115565
v 0.058966 -0.051377 -0.075329
vt 0.500000 0.500000
vt 0.500000 0.500000
vt 0.500000 0.500000
vt 0.500000 0.500000
vt 0.500000 0.500000
vt 0.500000 0.500000
vt 0.500000 0.500000
vt 0.500000 0.500000
vt 0.500000 0.500000
vt 0.500000 0.500000
vt 0.500000 0.500000
vt 0.500000 0.500000
vt 0.500000 0.500000
vt 0.500000 0.500000
vt 0.500000 0.500000
vt 0.500000 0.500000
vt 0.500000 0.500000
vt 0.500000 0.500000
vt 0.500000 0.500000
vt 0.500000 0.500000
vt 0.500000 0.500000
vt 0.500000 0.500000
vt 0.500000 0.500000
vt 0.500000 0.500000
vt 0.500000 0.500000
vt 0.500000 0.500000
vt 0.500000 0.500000
vt 0.500000 0.500000
vt 0.500000 0.500000
vt 0.500000 0.500000
vt 0.500000 0.500000
vt 0.500000 0.500000
vt 0.500000 0.500000
vt 0.500000 0.500000
vt 0.500000 0.500000
vt 0.500000 0.500000
vt 0.500000 0.500000
vt 0.500000 0.500000
vt 0.500000 0.500000
vt 0.500000 0.500000
vt 0.500000 0.500000
vt 0.500000 0.500000
vt 0.500000 0.500000
vt 0.500000 0.500000
vn -0.9999 0.0000 0.0137
vn 0.0000 -1.0000 0.0000
vn 0.9999 0.0000 -0.0137
vn 0.0137 0.0000 0.9999
vn 0.0000 1.0000 -0.0000
vn -0.6019 0.0000 -0.7985
vn 0.9990 0.0000 -0.0446
vn -1.0000 0.0000 0.0046
vn -0.5218 0.0000 0.8531
vn 0.5987 0.0000 0.8010
vn -0.6535 0.0000 -0.7569
vn 0.5553 0.0000 -0.8317
vn -0.5702 0.0000 0.8215
vn 0.5656 0.0000 -0.8247
vn 0.5355 0.0000 0.8446
usemtl Material.002
s off
f 35/1/1 33/2/1 4/3/1 3/4/1
f 34/5/2 3/4/2 42/6/2 37/7/2
f 24/8/3 22/9/3 6/10/3 5/11/3
f 5/11/4 6/10/4 2/12/4 1/13/4
f 21/14/2 24/8/2 5/11/2 1/13/2
f 22/9/5 23/15/5 2/12/5 6/10/5
f 9/16/6 12/17/6 42/6/6 43/18/6
f 19/19/3 20/20/3 11/21/3 10/22/3
f 10/22/4 11/21/4 8/23/4 7/24/4
f 17/25/2 19/19/2 10/22/2 7/24/2
f 20/20/5 18/26/5 8/23/5 11/21/5
f 36/27/5 33/2/5 14/28/5 16/29/5
f 35/1/2 34/5/2 15/30/2 13/31/2
f 34/5/3 36/27/3 16/29/3 15/30/3
f 21/14/1 23/15/1 14/28/1 13/31/1
f 28/32/5 25/33/5 18/26/5 20/20/5
f 27/34/2 26/35/2 19/19/2 17/25/2
f 26/35/3 28/32/3 20/20/3 19/19/3
f 7/24/1 8/23/1 18/26/1 17/25/1
f 1/13/1 2/12/1 23/15/1 21/14/1
f 16/29/5 14/28/5 23/15/5 22/9/5
f 13/31/2 15/30/2 24/8/2 21/14/2
f 24/8/2 15/30/2 37/7/2 40/36/2
f 30/37/3 32/38/3 28/32/3 26/35/3
f 31/39/2 30/37/2 26/35/2 27/34/2
f 32/38/5 29/40/5 25/33/5 28/32/5
f 18/26/5 25/33/5 41/41/5 39/42/5
f 9/16/5 29/40/5 32/38/5
f 12/17/2 30/37/2 31/39/2
f 12/17/7 9/16/7 32/38/7 30/37/7
f 27/34/8 25/33/8 29/40/8 31/39/8
f 36/27/9 34/5/9 37/7/9 38/43/9
f 3/4/2 34/5/2 35/1/2
f 4/3/5 33/2/5 36/27/5
f 13/31/1 14/28/1 33/2/1 35/1/1
f 22/9/10 24/8/10 40/36/10 39/42/10
f 15/30/11 16/29/11 38/43/11 37/7/11
f 16/29/5 22/9/5 39/42/5 38/43/5
f 25/33/12 27/34/12 44/44/12 41/41/12
f 27/34/2 17/25/2 40/36/2 44/44/2
f 17/25/13 18/26/13 39/42/13 40/36/13
f 40/36/2 37/7/2 42/6/2 44/44/2
f 3/4/14 4/3/14 43/18/14 42/6/14
f 4/3/5 36/27/5 38/43/5 43/18/5
f 38/43/5 39/42/5 41/41/5 43/18/5
f 29/40/5 9/16/5 43/18/5 41/41/5
f 12/17/2 31/39/2 44/44/2 42/6/2
f 31/39/15 29/40/15 41/41/15 44/44/15
