# Blender v2.83.5 OBJ File: 'runes icons.blend'
# www.blender.org
mtllib Othilla.mtl
o Othilla
v -0.060549 -0.051377 -0.091798
v -0.060549 0.051377 -0.091798
v -0.175136 -0.051377 -0.085673
v -0.175136 0.051377 -0.085673
v 0.172650 0.051377 -0.094068
v 0.172650 -0.051377 -0.094068
v 0.060836 -0.051377 -0.092941
v 0.060836 0.051377 -0.092941
v -0.004421 -0.051377 -0.263906
v -0.004421 0.051377 -0.263906
v -0.002902 -0.051377 -0.152871
v -0.002901 0.051377 -0.152871
v -0.000983 -0.051377 -0.026158
v -0.000983 0.051377 -0.026158
v -0.051047 -0.051377 0.028407
v -0.051047 0.051377 0.028407
v 0.058051 0.051377 0.030029
v 0.058051 -0.051377 0.030029
v 0.004286 0.051377 0.086483
v 0.004286 -0.051377 0.086483
v 0.195807 0.051377 0.172788
v 0.195807 -0.051377 0.172788
v 0.142042 0.051377 0.229243
v 0.142042 -0.051377 0.229243
v -0.190672 0.051377 0.180804
v -0.190672 -0.051377 0.180804
v -0.135340 -0.051377 0.238880
v -0.135340 0.051377 0.238880
vt 0.500000 0.500000
vt 0.500000 0.500000
vt 0.500000 0.500000
vt 0.500000 0.500000
vt 0.500000 0.500000
vt 0.500000 0.500000
vt 0.500000 0.500000
vt 0.500000 0.500000
vt 0.500000 0.500000
vt 0.500000 0.500000
vt 0.500000 0.500000
vt 0.500000 0.500000
vt 0.500000 0.500000
vt 0.500000 0.500000
vt 0.500000 0.500000
vt 0.500000 0.500000
vt 0.500000 0.500000
vt 0.500000 0.500000
vt 0.500000 0.500000
vt 0.500000 0.500000
vt 0.500000 0.500000
vt 0.500000 0.500000
vt 0.500000 0.500000
vt 0.500000 0.500000
vt 0.500000 0.500000
vt 0.500000 0.500000
vt 0.500000 0.500000
vt 0.500000 0.500000
vn 0.0000 -1.0000 0.0000
vn 0.0000 1.0000 -0.0000
vn -0.7222 0.0000 -0.6917
vn 0.7272 -0.0000 0.6864
vn 0.6922 0.0000 -0.7217
vn -0.6850 0.0000 0.7285
vn 0.7347 0.0000 0.6784
vn -0.6768 0.0000 0.7362
vn 0.7405 0.0000 -0.6720
vn -0.7339 0.0000 -0.6793
vn 0.7241 0.0000 0.6896
vn 0.7196 0.0000 -0.6944
vn -0.7196 0.0000 0.6944
vn -0.7240 0.0000 0.6898
vn -0.7373 0.0000 -0.6755
vn 0.7373 0.0000 0.6755
usemtl Material.002
s off
f 1/1/1 3/2/1 9/3/1 11/4/1
f 6/5/1 7/6/1 11/4/1 9/3/1
f 3/2/1 1/1/1 13/7/1 15/8/1
f 4/9/2 2/10/2 12/11/2 10/12/2
f 3/2/3 4/9/3 10/12/3 9/3/3
f 2/10/4 1/1/4 11/4/4 12/11/4
f 5/13/5 6/5/5 9/3/5 10/12/5
f 8/14/2 5/13/2 10/12/2 12/11/2
f 7/6/6 8/14/6 12/11/6 11/4/6
f 2/10/2 4/9/2 16/15/2 14/16/2
f 6/5/7 5/13/7 17/17/7 18/18/7
f 4/9/8 3/2/8 15/8/8 16/15/8
f 1/1/9 2/10/9 14/16/9 13/7/9
f 8/14/10 7/6/10 13/7/10 14/16/10
f 7/6/1 6/5/1 18/18/1 13/7/1
f 5/13/2 8/14/2 14/16/2 17/17/2
f 13/7/1 18/18/1 20/19/1 15/8/1
f 16/15/2 19/20/2 17/17/2 14/16/2
f 22/21/11 21/22/11 23/23/11 24/24/11
f 17/17/12 21/22/12 22/21/12 18/18/12
f 19/20/2 23/23/2 21/22/2 17/17/2
f 20/19/13 24/24/13 23/23/13 19/20/13
f 18/18/1 22/21/1 24/24/1 20/19/1
f 25/25/14 26/26/14 27/27/14 28/28/14
f 15/8/15 26/26/15 25/25/15 16/15/15
f 20/19/1 27/27/1 26/26/1 15/8/1
f 19/20/16 28/28/16 27/27/16 20/19/16
f 16/15/2 25/25/2 28/28/2 19/20/2
