# Blender v2.83.5 OBJ File: 'runes icons.blend'
# www.blender.org
mtllib Pertho.mtl
o Pertho
v -0.123730 -0.051377 0.281489
v -0.123730 0.051377 0.281489
v -0.131409 -0.051377 -0.279498
v -0.131409 0.051377 -0.279498
v -0.054154 -0.051377 0.256493
v -0.054154 0.051377 0.256493
v -0.061237 -0.051377 -0.260995
v -0.061237 0.051377 -0.260995
v -0.129987 -0.051377 -0.175634
v -0.125199 -0.051377 0.174190
v -0.125199 0.051377 0.174190
v -0.129987 0.051377 -0.175633
v -0.054686 -0.051377 0.169249
v -0.060064 -0.051377 -0.175265
v -0.060064 0.051377 -0.175265
v -0.054686 0.051377 0.169249
v 0.073670 0.051377 -0.214118
v 0.073670 -0.051377 -0.214118
v 0.094083 -0.051377 -0.126559
v 0.094861 0.051377 0.107980
v 0.078020 0.051377 0.200511
v 0.078020 -0.051377 0.200511
v 0.094861 -0.051377 0.107980
v 0.094083 0.051377 -0.126560
v 0.150884 0.051377 -0.291199
v 0.150884 -0.051377 -0.291199
v 0.201695 -0.051377 -0.241332
v 0.213385 0.051377 0.220797
v 0.158291 0.051377 0.285925
v 0.158291 -0.051377 0.285925
v 0.213385 -0.051377 0.220798
v 0.201695 0.051377 -0.241333
vt 0.500000 0.500000
vt 0.500000 0.500000
vt 0.500000 0.500000
vt 0.500000 0.500000
vt 0.500000 0.500000
vt 0.500000 0.500000
vt 0.500000 0.500000
vt 0.500000 0.500000
vt 0.500000 0.500000
vt 0.500000 0.500000
vt 0.500000 0.500000
vt 0.500000 0.500000
vt 0.500000 0.500000
vt 0.500000 0.500000
vt 0.500000 0.500000
vt 0.500000 0.500000
vt 0.500000 0.500000
vt 0.500000 0.500000
vt 0.500000 0.500000
vt 0.500000 0.500000
vt 0.500000 0.500000
vt 0.500000 0.500000
vt 0.500000 0.500000
vt 0.500000 0.500000
vt 0.500000 0.500000
vt 0.500000 0.500000
vt 0.500000 0.500000
vt 0.500000 0.500000
vt 0.500000 0.500000
vt 0.500000 0.500000
vt 0.500000 0.500000
vt 0.500000 0.500000
vn -0.9999 0.0000 0.0137
vn 0.2550 0.0000 -0.9669
vn 0.0000 1.0000 0.0000
vn 0.3381 0.0000 0.9411
vn 0.0000 -1.0000 -0.0000
vn 0.9999 -0.0000 -0.0156
vn 0.7295 0.0000 0.6840
vn 0.3282 0.0000 -0.9446
vn -0.3791 -0.0000 -0.9253
vn 0.3900 0.0000 0.9208
vn -0.3013 0.0000 0.9535
vn 0.7635 0.0000 0.6458
vn 0.7004 -0.0000 -0.7137
vn -0.7065 0.0000 -0.7077
vn 0.6895 -0.0000 -0.7243
vn -0.7287 0.0000 0.6848
usemtl Material.002
s off
f 9/1/1 12/2/1 4/3/1 3/4/1
f 3/4/2 4/3/2 8/5/2 7/6/2
f 16/7/3 6/8/3 21/9/3 20/10/3
f 5/11/4 6/8/4 2/12/4 1/13/4
f 10/14/5 13/15/5 5/11/5 1/13/5
f 16/7/3 11/16/3 2/12/3 6/8/3
f 8/5/3 4/3/3 12/2/3 15/17/3
f 15/17/3 12/2/3 11/16/3 16/7/3
f 3/4/5 7/6/5 14/18/5 9/1/5
f 9/1/5 14/18/5 13/15/5 10/14/5
f 8/5/3 15/17/3 24/19/3 17/20/3
f 14/18/6 15/17/6 16/7/6 13/15/6
f 1/13/1 2/12/1 11/16/1 10/14/1
f 10/14/1 11/16/1 12/2/1 9/1/1
f 24/19/7 19/21/7 27/22/7 32/23/7
f 19/21/5 18/24/5 26/25/5 27/22/5
f 5/11/5 13/15/5 23/26/5 22/27/5
f 7/6/8 8/5/8 17/20/8 18/24/8
f 13/15/9 16/7/9 20/10/9 23/26/9
f 6/8/10 5/11/10 22/27/10 21/9/10
f 14/18/5 7/6/5 18/24/5 19/21/5
f 15/17/11 14/18/11 19/21/11 24/19/11
f 31/28/12 28/29/12 29/30/12 30/31/12
f 26/25/13 25/32/13 32/23/13 27/22/13
f 22/27/5 23/26/5 31/28/5 30/31/5
f 20/10/3 21/9/3 29/30/3 28/29/3
f 18/24/14 17/20/14 25/32/14 26/25/14
f 23/26/15 20/10/15 28/29/15 31/28/15
f 17/20/3 24/19/3 32/23/3 25/32/3
f 21/9/16 22/27/16 30/31/16 29/30/16
