# Blender v2.83.5 OBJ File: 'runes icons.blend'
# www.blender.org
mtllib Teiwaz.mtl
o Teiwaz
v -0.027564 -0.051377 0.301072
v -0.027564 0.051377 0.301072
v -0.002829 -0.051377 -0.229577
v -0.002829 0.051377 -0.229577
v 0.036421 -0.051377 0.300196
v 0.036421 0.051377 0.300196
v -0.139384 0.051377 0.021027
v -0.139384 -0.051377 0.021027
v -0.032787 -0.051377 -0.080492
v -0.032787 0.051377 -0.080492
v 0.031198 -0.051377 -0.081367
v 0.031198 0.051377 -0.081367
v -0.194118 0.051377 -0.037969
v -0.194118 -0.051377 -0.037969
v 0.192440 -0.051377 -0.042660
v 0.192440 0.051377 -0.042660
v 0.140534 0.051377 0.017196
v 0.140534 -0.051377 0.017196
vt 0.500000 0.500000
vt 0.500000 0.500000
vt 0.500000 0.500000
vt 0.500000 0.500000
vt 0.500000 0.500000
vt 0.500000 0.500000
vt 0.500000 0.500000
vt 0.500000 0.500000
vt 0.500000 0.500000
vt 0.500000 0.500000
vt 0.500000 0.500000
vt 0.500000 0.500000
vt 0.500000 0.500000
vt 0.500000 0.500000
vt 0.500000 0.500000
vt 0.500000 0.500000
vt 0.500000 0.500000
vt 0.500000 0.500000
vn -0.7331 0.0000 0.6801
vn 0.9999 0.0000 -0.0137
vn 0.0137 0.0000 0.9999
vn 0.0000 -1.0000 0.0000
vn 0.0000 1.0000 0.0000
vn -0.9999 0.0000 0.0137
vn 0.6896 0.0000 0.7241
vn -0.7077 0.0000 -0.7065
vn 0.7555 0.0000 0.6552
vn 0.6915 0.0000 -0.7224
vn -0.6696 0.0000 0.7427
usemtl Material.002
s off
f 8/1/1 7/2/1 13/3/1 14/4/1
f 11/5/2 12/6/2 6/7/2 5/8/2
f 5/8/3 6/7/3 2/9/3 1/10/3
f 9/11/4 11/5/4 5/8/4 1/10/4
f 12/6/5 10/12/5 2/9/5 6/7/5
f 4/13/5 10/12/5 12/6/5
f 3/14/4 11/5/4 9/11/4
f 1/10/6 2/9/6 10/12/6 9/11/6
f 10/12/7 7/2/7 8/1/7 9/11/7
f 4/13/5 13/3/5 7/2/5 10/12/5
f 3/14/8 14/4/8 13/3/8 4/13/8
f 9/11/4 8/1/4 14/4/4 3/14/4
f 15/15/9 16/16/9 17/17/9 18/18/9
f 4/13/10 16/16/10 15/15/10 3/14/10
f 12/6/5 17/17/5 16/16/5 4/13/5
f 11/5/11 18/18/11 17/17/11 12/6/11
f 3/14/4 15/15/4 18/18/4 11/5/4
