# Blender v2.83.5 OBJ File: 'runes icons.blend'
# www.blender.org
mtllib Thurisaz.mtl
o Thurisaz
v -0.078962 -0.051377 0.294540
v -0.078962 0.051377 0.294540
v -0.086842 -0.051377 -0.281117
v -0.086842 0.051377 -0.281117
v 0.000773 -0.051377 0.293449
v 0.000773 0.051377 0.293449
v -0.007107 -0.051377 -0.282208
v -0.007107 0.051377 -0.282208
v -0.083751 -0.051377 -0.055307
v -0.083751 0.051377 -0.055307
v -0.004016 -0.051377 -0.056398
v -0.004016 0.051377 -0.056398
v -0.085340 0.051377 -0.171392
v -0.005605 -0.051377 -0.172484
v -0.085340 -0.051377 -0.171392
v -0.005605 0.051377 -0.172484
v -0.081064 -0.051377 0.140988
v -0.001329 0.051377 0.139896
v -0.081064 0.051377 0.140988
v -0.001329 -0.051377 0.139896
v -0.082364 0.051377 0.046032
v -0.002629 -0.051377 0.044941
v -0.082364 -0.051377 0.046032
v -0.002629 0.051377 0.044941
v 0.198697 -0.051377 -0.012553
v 0.198697 0.051377 -0.012553
v 0.075407 -0.051377 -0.010865
v 0.075407 0.051377 -0.010865
vt 0.500000 0.500000
vt 0.500000 0.500000
vt 0.500000 0.500000
vt 0.500000 0.500000
vt 0.500000 0.500000
vt 0.500000 0.500000
vt 0.500000 0.500000
vt 0.500000 0.500000
vt 0.500000 0.500000
vt 0.500000 0.500000
vt 0.500000 0.500000
vt 0.500000 0.500000
vt 0.500000 0.500000
vt 0.500000 0.500000
vt 0.500000 0.500000
vt 0.500000 0.500000
vt 0.500000 0.500000
vt 0.500000 0.500000
vt 0.500000 0.500000
vt 0.500000 0.500000
vt 0.500000 0.500000
vt 0.500000 0.500000
vt 0.500000 0.500000
vt 0.500000 0.500000
vt 0.500000 0.500000
vt 0.500000 0.500000
vt 0.500000 0.500000
vt 0.500000 0.500000
vn -0.9999 0.0000 0.0137
vn -0.0137 0.0000 -0.9999
vn 0.9999 -0.0000 -0.0137
vn 0.0137 0.0000 0.9999
vn 0.0000 -1.0000 -0.0000
vn 0.0000 1.0000 -0.0000
vn 0.6164 0.0000 -0.7874
vn -0.4974 -0.0000 0.8675
vn 0.6062 -0.0000 0.7953
vn -0.5817 0.0000 -0.8134
usemtl Material.002
s off
f 15/1/1 13/2/1 4/3/1 3/4/1
f 3/4/2 4/3/2 8/5/2 7/6/2
f 20/7/3 18/8/3 6/9/3 5/10/3
f 5/10/4 6/9/4 2/11/4 1/12/4
f 17/13/5 20/7/5 5/10/5 1/12/5
f 18/8/6 19/14/6 2/11/6 6/9/6
f 16/15/6 13/2/6 10/16/6 12/17/6
f 15/1/5 14/18/5 11/19/5 9/20/5
f 11/19/5 14/18/5 25/21/5 27/22/5
f 23/23/1 21/24/1 10/16/1 9/20/1
f 7/6/3 8/5/3 16/15/3 14/18/3
f 3/4/5 7/6/5 14/18/5 15/1/5
f 8/5/6 4/3/6 13/2/6 16/15/6
f 9/20/1 10/16/1 13/2/1 15/1/1
f 1/12/1 2/11/1 19/14/1 17/13/1
f 24/25/6 21/24/6 19/14/6 18/8/6
f 23/23/5 22/26/5 20/7/5 17/13/5
f 20/7/5 22/26/5 27/22/5 25/21/5
f 11/19/3 12/17/3 24/25/3 22/26/3
f 9/20/5 11/19/5 22/26/5 23/23/5
f 12/17/6 10/16/6 21/24/6 24/25/6
f 17/13/1 19/14/1 21/24/1 23/23/1
f 16/15/6 12/17/6 28/27/6 26/28/6
f 14/18/7 16/15/7 26/28/7 25/21/7
f 12/17/8 11/19/8 27/22/8 28/27/8
f 18/8/9 20/7/9 25/21/9 26/28/9
f 24/25/6 18/8/6 26/28/6 28/27/6
f 22/26/10 24/25/10 28/27/10 27/22/10
